# xmcd
#
# Track frame offsets: 
#        150
#        12150
#        27302
#        42580
#        54690
#        68012
#        79477
#        93585
#        108765
#        134682
#        143690
#        156030
#        171837
#        187210
#        199592
#        211502
#        225237
#        238855
#        251592
#
# Disc length: 3522 seconds
#
# Revision: 0
# Processed by: cddbd v1.4PL0 Copyright (c) Steve Scherf et al.
# Submitted via: ExactAudioCopy v0.90b4
#
DISCID=060dc013
DTITLE=Lena Horne - One More For My Baby
DYEAR=2000
DGENRE=Blues
TTITLE0=Night And Day
TTITLE1=One More Time For My Baby (& One More Time For The Road)
TTITLE2=Stormy Weather
TTITLE3=What Is This Thing Called Love
TTITLE4=Mad About The Boy
TTITLE5=Ill Wind
TTITLE6=Don't Take Your Love Away From Me
TTITLE7=Good For Nothin' Joe
TTITLE8=Frankie and Johnny
TTITLE9=Falling In Love
TTITLE10=Where Or When
TTITLE11=Out Of Nowhere
TTITLE12=Prisoner Of Love
TTITLE13=(Sometimes I Feel Like A) Motherless Child
TTITLE14=Old Devil Moon
TTITLE15=St Louis Blues
TTITLE16=Beale Street Blues
TTITLE17=Aunt Hagar's Blues
TTITLE18=Careless Blues
EXTD=
EXTT0=
EXTT1=
EXTT2=
EXTT3=
EXTT4=
EXTT5=
EXTT6=
EXTT7=
EXTT8=
EXTT9=
EXTT10=
EXTT11=
EXTT12=
EXTT13=
EXTT14=
EXTT15=
EXTT16=
EXTT17=
EXTT18=
PLAYORDER=
